<?xml version="1.0" encoding="UTF-8"?>
<svg width="200px" height="48px" viewBox="0 0 200 48" version="1.1" xmlns="http://www.w3.org/2000/svg" xmlns:xlink="http://www.w3.org/1999/xlink">
    <!-- Generator: Sketch 51.2 (57519) - http://www.bohemiancoding.com/sketch -->
    <title>Group 20</title>
    <desc>Created with Sketch.</desc>
    <defs>
        <polygon id="path-1" points="2.69179004e-05 0.0468909825 52.5001615 0.0468909825 52.5001615 47.6446837 2.69179004e-05 47.6446837"></polygon>
        <polygon id="path-3" points="0 47.8670256 199.83284 47.8670256 199.83284 0.269179004 0 0.269179004"></polygon>
    </defs>
    <g id="Explorer" stroke="none" stroke-width="1" fill="none" fill-rule="evenodd">
        <g id="start" transform="translate(-112.000000, -31.000000)">
            <g id="Group-6">
                <g id="Group-20" transform="translate(112.000000, 31.000000)">
                    <g id="Group-3" transform="translate(0.000000, 0.222342)">
                        <mask id="mask-2" fill="white">
                            <use xlink:href="#path-1"></use>
                        </mask>
                        <g id="Clip-2"></g>
                        <path d="M28.7020458,0.0468909825 L0.659515478,0.0468909825 C0.294777927,0.0468909825 2.69179004e-05,0.341641992 2.69179004e-05,0.706379542 C2.69179004e-05,1.07138627 0.294777927,1.36613728 0.659515478,1.36613728 L28.7020458,1.36613728 C41.0972005,1.36613728 51.1809152,11.449852 51.1809152,23.8458143 C51.1809152,36.2415074 41.0972005,46.3254913 28.7020458,46.3254913 L21.5795693,46.3254913 C21.2148318,46.3254913 20.9200808,46.6202423 20.9200808,46.9849798 C20.9200808,47.3497174 21.2148318,47.6447376 21.5795693,47.6447376 L28.7020458,47.6447376 C41.824253,47.6447376 52.5001615,36.9680215 52.5001615,23.8458143 C52.5001615,10.723607 41.824253,0.0468909825 28.7020458,0.0468909825" id="Fill-1" fill="#00E6AD" mask="url(#mask-2)"></path>
                    </g>
                    <path d="M46.597712,24.0680485 C46.597712,14.1878331 38.5605653,6.14960969 28.6803499,6.14960969 L9.72664872,6.14960969 C9.36164199,6.14960969 9.06716016,6.4443607 9.06716016,6.80936743 C9.06716016,7.17410498 9.36164199,7.46885599 9.72664872,7.46885599 L28.6803499,7.46885599 C37.8324361,7.46885599 45.2787349,14.9159623 45.2787349,24.0680485 C45.2787349,33.2201346 37.8324361,40.6656258 28.6803499,40.6656258 L14.5018843,40.6656258 C14.1371467,40.6656258 13.8421265,40.9601077 13.8421265,41.3251144 C13.8421265,41.6901211 14.1371467,41.9848721 14.5018843,41.9848721 L28.6803499,41.9848721 C38.5605653,41.9848721 46.597712,33.9482638 46.597712,24.0680485" id="Fill-4" fill="#00E6AD"></path>
                    <path d="M18.7613459,14.1001615 C18.0052221,14.1001615 17.3904172,13.4861642 17.3904172,12.7300404 C17.3904172,11.9739166 18.0052221,11.3599192 18.7613459,11.3599192 C19.5166622,11.3599192 20.131467,11.9739166 20.131467,12.7300404 C20.131467,13.4861642 19.5166622,14.1001615 18.7613459,14.1001615 M18.7613459,36.7763392 C18.0052221,36.7763392 17.3904172,36.1623419 17.3904172,35.406218 C17.3904172,34.6500942 18.0052221,34.0360969 18.7613459,34.0360969 C19.5166622,34.0360969 20.131467,34.6500942 20.131467,35.406218 C20.131467,36.1623419 19.5166622,36.7763392 18.7613459,36.7763392 M28.7021265,34.7464603 L21.3653836,34.7464603 C21.0700942,33.5822611 20.0165276,32.7168506 18.7613459,32.7168506 C17.2781696,32.7168506 16.0711709,33.9238493 16.0711709,35.406218 C16.0711709,36.8885868 17.2781696,38.0955855 18.7613459,38.0955855 C20.0165276,38.0955855 21.0700942,37.2299058 21.3653836,36.0657066 L28.7021265,36.0657066 C35.3177389,36.0657066 40.6997039,30.6834724 40.6997039,24.0681292 C40.6997039,17.452786 35.3177389,12.0702826 28.7021265,12.0702826 L21.3653836,12.0702826 C21.0700942,10.9063526 20.0165276,10.0406729 18.7613459,10.0406729 C17.2781696,10.0406729 16.0711709,11.2476716 16.0711709,12.7300404 C16.0711709,14.2124092 17.2781696,15.4194078 18.7613459,15.4194078 C20.0165276,15.4194078 21.0700942,14.5539973 21.3653836,13.3895289 L28.7021265,13.3895289 C34.5904172,13.3895289 39.3807268,18.180646 39.3807268,24.0681292 C39.3807268,29.9556124 34.5904172,34.7464603 28.7021265,34.7464603" id="Fill-6" fill="#00E6AD"></path>
                    <path d="M72.2015343,28.9394347 C70.8647914,30.2374159 68.9931898,30.8866756 66.5869987,30.8866756 L62.8594078,30.8866756 L62.8594078,17.2492598 L66.5869987,17.2492598 C68.9931898,17.2492598 70.8647914,17.8987887 72.2015343,19.1967699 C73.5382773,20.4936743 74.2071871,22.1181696 74.2071871,24.0686406 C74.2071871,26.018035 73.5382773,27.6427995 72.2015343,28.9394347 M66.6106864,16.1647376 L61.6556393,16.1647376 L61.6556393,31.9717362 L66.6106864,31.9717362 C69.3630417,31.9717362 71.5129744,31.2207268 73.0629071,29.7189771 C74.6117631,28.2161507 75.3861911,26.3335128 75.3861911,24.0686406 C75.3861911,21.8037685 74.6117631,19.9200538 73.0629071,18.4183042 C71.5129744,16.9154778 69.3630417,16.1647376 66.6106864,16.1647376" id="Fill-8" fill="#FFFFFF"></path>
                    <mask id="mask-4" fill="white">
                        <use xlink:href="#path-3"></use>
                    </mask>
                    <g id="Clip-11"></g>
                    <polygon id="Fill-10" fill="#FFFFFF" mask="url(#mask-4)" points="80.305249 31.9717362 81.5090175 31.9717362 81.5090175 16.1647376 80.305249 16.1647376"></polygon>
                    <path d="M97.0188425,24.9649798 C96.6336474,24.6659219 96.233109,24.4301211 95.8161507,24.257039 C95.3991925,24.0839569 94.9160162,23.942638 94.3647376,23.8320054 L90.8974428,23.0064334 C89.9843876,22.8023957 89.2890983,22.4912248 88.8096904,22.0742665 C88.3292059,21.6581157 88.0893674,21.0486945 88.0893674,20.2457335 C88.0893674,19.2398116 88.4716016,18.4376581 89.2336474,17.8395424 C89.9967699,17.2422342 90.9763122,16.9431763 92.171467,16.9431763 C93.4139973,16.9431763 94.4438762,17.2575774 95.2621803,17.8866487 C96.079677,18.5154509 96.5905787,19.3574428 96.7956931,20.4115478 L97.9746972,20.1278331 C97.7074024,18.8546164 97.0670256,17.8322746 96.0519515,17.0608075 C95.0379542,16.2904172 93.759354,15.9054913 92.2188425,15.9054913 C90.6145357,15.9054913 89.3125168,16.3017227 88.3138627,17.0968775 C87.3149394,17.8906864 86.8153432,18.9488291 86.8153432,20.2691521 C86.8153432,22.2360431 88.0271871,23.5019919 90.4487214,24.0686137 L94.1057873,24.9178735 C95.1442799,25.1534051 95.8950202,25.4761507 96.359354,25.8847645 C96.8231494,26.2936474 97.0549125,26.9224495 97.0549125,27.7717093 C97.0549125,28.8104711 96.6613728,29.6360431 95.8745626,30.249502 C95.0890983,30.8632301 94.0266487,31.1695559 92.6899058,31.1695559 C91.2742934,31.1695559 90.0950202,30.819354 89.1515478,30.1194886 C88.2072678,29.4198923 87.6654105,28.4643069 87.5230148,27.2532705 L86.2497981,27.5361777 C86.4228802,28.9835532 87.0907133,30.1278331 88.2543742,30.9687483 C89.4191117,31.8107402 90.8656797,32.2309287 92.5956931,32.2309287 C94.2942127,32.2309287 95.6584118,31.8220458 96.6888291,31.0045491 C97.7197847,30.1859758 98.2349933,29.093109 98.2349933,27.724603 C98.2349933,27.1119515 98.1283984,26.5733244 97.9162853,26.1089906 C97.7030956,25.6451952 97.4051144,25.262961 97.0188425,24.9649798" id="Fill-12" fill="#FFFFFF" mask="url(#mask-4)"></path>
                    <path d="M110.180996,17.0138089 C111.67467,17.0138089 112.980458,17.3753163 114.097281,18.099677 C115.213567,18.822961 116.000377,19.8062719 116.456097,21.0488022 L117.589071,20.6942934 C117.054482,19.2315747 116.126353,18.0679139 114.804953,17.2022342 C113.483553,16.3376312 111.941965,15.9053297 110.180996,15.9053297 C107.899704,15.9053297 105.973997,16.6951009 104.400377,18.2757201 C102.828102,19.8563392 102.041561,21.7871602 102.041561,24.0684522 C102.041561,26.3489367 102.828102,28.2797577 104.400377,29.8603769 C105.973997,31.440996 107.899704,32.2307672 110.180996,32.2307672 C111.941965,32.2307672 113.483553,31.794428 114.804953,30.9214805 C116.126353,30.0488022 117.054482,28.8657604 117.589071,27.3712786 L116.432948,27.0883715 C115.960538,28.3309017 115.170767,29.3134051 114.061211,30.0364199 C112.953001,30.7607806 111.659058,31.1225572 110.180996,31.1225572 C108.230525,31.1225572 106.582342,30.4423419 105.2386,29.0819112 C103.893513,27.7214805 103.221642,26.0496097 103.221642,24.0684522 C103.221642,22.0864872 103.893513,20.4156931 105.2386,19.0544549 C106.582342,17.6940242 108.230525,17.0138089 110.180996,17.0138089" id="Fill-13" fill="#FFFFFF" mask="url(#mask-4)"></path>
                    <polygon id="Fill-14" fill="#FFFFFF" mask="url(#mask-4)" points="122.372005 31.9717362 123.575505 31.9717362 123.575505 16.1647376 122.372005 16.1647376"></polygon>
                    <path d="M138.956608,23.4785734 C138.201561,24.154751 137.202638,24.4928398 135.960108,24.4928398 L130.48716,24.4928398 L130.48716,17.2492328 L135.960108,17.2492328 C137.202638,17.2492328 138.201561,17.5843607 138.956608,18.2521938 C139.711655,18.9211036 140.088506,19.7897443 140.088506,20.8591925 C140.088506,21.9286406 139.711655,22.8023957 138.956608,23.4785734 M139.829287,17.4737281 C138.854051,16.6010498 137.564415,16.1647106 135.960108,16.1647106 L129.283392,16.1647106 L129.283392,31.9717093 L130.48716,31.9717093 L130.48716,25.5784388 L135.960108,25.5784388 C137.564415,25.5784388 138.854051,25.1410229 139.829287,24.2683445 C140.804522,23.3956662 141.292275,22.2597308 141.292275,20.8591925 C141.292275,19.4753432 140.804522,18.3464065 139.829287,17.4737281" id="Fill-15" fill="#FFFFFF" mask="url(#mask-4)"></path>
                    <polygon id="Fill-16" fill="#FFFFFF" mask="url(#mask-4)" points="146.628991 16.164603 145.425222 16.164603 145.425222 31.9716016 156.159812 31.9716016 156.159812 30.8868102 146.628991 30.8868102"></polygon>
                    <polygon id="Fill-17" fill="#FFFFFF" mask="url(#mask-4)" points="160.213459 31.9717362 161.416958 31.9717362 161.416958 16.1647376 160.213459 16.1647376"></polygon>
                    <polygon id="Fill-18" fill="#FFFFFF" mask="url(#mask-4)" points="179.321884 30.0130013 168.185949 16.1645491 167.124576 16.1645491 167.124576 31.9715478 168.328075 31.9715478 168.328075 18.2173082 179.439515 31.9715478 180.501965 31.9715478 180.501965 16.1645491 179.321884 16.1645491"></polygon>
                    <path d="M188.106756,26.5691252 L192.118062,17.6746433 L196.12856,26.5691252 L188.106756,26.5691252 Z M192.636501,16.1645491 L191.575397,16.1645491 L184.378896,31.9715478 L185.653459,31.9715478 L187.612005,27.6539166 L196.624388,27.6539166 L198.558439,31.9715478 L199.832732,31.9715478 L192.636501,16.1645491 Z" id="Fill-19" fill="#FFFFFF" mask="url(#mask-4)"></path>
                </g>
            </g>
        </g>
    </g>
</svg>