<svg width="445" height="106" viewBox="0 0 445 106" xmlns="http://www.w3.org/2000/svg"><title>logo</title><g fill="none"><path d="M64.77 105.76H49a1.47 1.47 0 1 1 0-2.94h15.77a49.95 49.95 0 1 0 0-99.89H2.47a1.47 1.47 0 1 1 0-2.93h62.3c29.205 0 52.88 23.675 52.88 52.88 0 29.205-23.675 52.88-52.88 52.88z" fill="#00E7BF"/><path d="M64.72 92.69h-31.5a1.47 1.47 0 1 1 0-2.94h31.5a36.88 36.88 0 1 0 0-73.75H22.61a1.47 1.47 0 0 1 0-2.93h42.11c21.986 0 39.81 17.824 39.81 39.81S86.706 92.69 64.72 92.69z" fill="#00E7BF"/><path d="M64.77 79.53H47.19a1.47 1.47 0 0 1 0-2.93h17.58a23.73 23.73 0 1 0 0-47.45H47.19a1.47 1.47 0 0 1 0-2.93h17.58a26.66 26.66 0 1 1 0 53.31z" fill="#00E7BF"/><path d="M42.69 33.66a6 6 0 1 1 0-12 6 6 0 0 1 0 12zm0-9a3 3 0 1 0 3 3.05 3.06 3.06 0 0 0-3-3.07v.02zm0 59.34a6 6 0 1 1 0-12 6 6 0 0 1 0 12zm0-9a3 3 0 1 0 0 6 3 3 0 0 0 0-6z" fill="#00E7BF"/><path d="M149 28.26c6.113 0 10.893 1.667 14.34 5a16.76 16.76 0 0 1 5.16 12.55 16.77 16.77 0 0 1-5.16 12.56c-3.453 3.333-8.233 5-14.34 5h-11V28.26h11zM149 61c5.333 0 9.49-1.44 12.47-4.32a14.5 14.5 0 0 0 4.46-10.83A14.46 14.46 0 0 0 161.42 35c-2.947-2.88-7.087-4.323-12.42-4.33h-8.29V61H149zm30.43 2.38V28.26h2.67v35.12zm34.98-33.13a11.2 11.2 0 0 1 4.28 6.82l-2.62.63a9 9 0 0 0-3.41-5.61 10.94 10.94 0 0 0-6.87-2.1 10.35 10.35 0 0 0-6.53 2 6.46 6.46 0 0 0-2.54 5.35 5.07 5.07 0 0 0 1.6 4.06 10.43 10.43 0 0 0 4.68 2.06l7.71 1.84a17.38 17.38 0 0 1 3.22.94 11.44 11.44 0 0 1 2.67 1.58 6.7 6.7 0 0 1 2 2.54 8.58 8.58 0 0 1 .7 3.59 8.8 8.8 0 0 1-3.43 7.28 14.2 14.2 0 0 1-9.1 2.73 16 16 0 0 1-9.64-2.81 10.55 10.55 0 0 1-4.46-7.62l2.83-.63a8.89 8.89 0 0 0 3.62 6.37 12.88 12.88 0 0 0 7.86 2.33 11.24 11.24 0 0 0 7.08-2 6.63 6.63 0 0 0 2.62-5.51 5.29 5.29 0 0 0-1.54-4.19 11.42 11.42 0 0 0-5-2.15L202 45.82c-5.38-1.26-8.07-4.073-8.07-8.44a8.57 8.57 0 0 1 3.33-7.05 15.51 15.51 0 0 1 17.19-.08h-.04zm40.02 28.83a13.25 13.25 0 0 0 5.27-6.55l2.57.63a15.46 15.46 0 0 1-6.19 7.89A18.21 18.21 0 0 1 245.81 64a17.94 17.94 0 0 1-18.09-18.14 17.93 17.93 0 0 1 18.09-18.13 18.35 18.35 0 0 1 10.27 2.88 15.36 15.36 0 0 1 6.19 7.76l-2.52.78a12.92 12.92 0 0 0-5.24-6.55 15.62 15.62 0 0 0-8.7-2.41 14.86 14.86 0 0 0-11 4.53 15.28 15.28 0 0 0-4.48 11.14A15.25 15.25 0 0 0 234.82 57a14.87 14.87 0 0 0 11 4.54 15.4 15.4 0 0 0 8.61-2.46zm18.46 4.3V28.26h2.68v35.12zm30.19-35.12a12.41 12.41 0 0 1 8.6 2.91 9.62 9.62 0 0 1 3.25 7.52 9.69 9.69 0 0 1-3.25 7.58 12.41 12.41 0 0 1-8.6 2.91h-12.16v14.2h-2.67V28.26h14.83zm0 18.51a9.61 9.61 0 0 0 6.66-2.26 7.44 7.44 0 0 0 2.52-5.82 7.38 7.38 0 0 0-2.52-5.79 9.69 9.69 0 0 0-6.66-2.23h-12.16v16.1h12.16zM348 63.38h-23.89V28.26h2.68V61H348zm9 0V28.26h2.68v35.12zm45.05 0h-2.36L375 32.82v30.56h-2.67V28.26h2.36L399.43 59V28.26h2.62zm40.12 0l-4.3-9.59h-20l-4.35 9.59h-2.84l16-35.12H429l16 35.12h-2.83zm-14.31-31.76L419 51.38h17.82l-8.96-19.76zM143.09 74.69c2.51 0 4.08 1.49 4.08 3.64 0 2.15-1.57 3.67-4.08 3.67h-3.72v4.45H138V74.69h5.09zm0 6a2.41 2.41 0 1 0 0-4.79h-3.72v4.79h3.72zm11.72-2.92L154.7 79h-.5c-2.3 0-3.47 1.73-3.47 4v3.33h-1.34v-8.55h1.34v2.12a3.89 3.89 0 0 1 3.47-2.2c.206-.01.412.014.61.07zm9.92 4.32a4.57 4.57 0 1 1-4.56-4.5 4.45 4.45 0 0 1 4.56 4.5zm-1.31 0a3.27 3.27 0 1 0-6.54 0 3.27 3.27 0 0 0 6.54 0zm2.08 7.24c.258.118.537.182.82.19a1 1 0 0 0 1.14-1.07V77.78h1.34v10.83a2 2 0 0 1-2.17 2.17 3.4 3.4 0 0 1-1.43-.3l.3-1.15zm3.5-14.15a.87.87 0 0 1-.91.89.88.88 0 0 1-.93-.89.91.91 0 0 1 .93-.89.9.9 0 0 1 .91.89zm10.91 7.19h-7.39a3.14 3.14 0 0 0 3.07 3.09 3 3 0 0 0 2.94-1.85l1.19.28a4.13 4.13 0 0 1-4.13 2.74 4.53 4.53 0 0 1 .09-9 4.2 4.2 0 0 1 4.23 4.3v.44zm-7.34-1h6a2.85 2.85 0 0 0-2.89-2.62 3.09 3.09 0 0 0-3.11 2.62zm16.2 2.08l1.23.33a4.15 4.15 0 0 1-4.08 2.85 4.53 4.53 0 0 1 0-9 4.17 4.17 0 0 1 4.08 2.81l-1.27.39a2.84 2.84 0 0 0-2.82-2 3.17 3.17 0 0 0-3.2 3.3 3.13 3.13 0 0 0 3.2 3.29 2.91 2.91 0 0 0 2.86-1.97zm8.71 2.55a3.28 3.28 0 0 1-2 .68 2.65 2.65 0 0 1-2.85-2.92V78.9h-1.87v-1.12h1.87v-3.09H194v3.09h3.08v1.12H194v4.73a1.54 1.54 0 0 0 1.59 1.74 2.68 2.68 0 0 0 1.47-.52l.42 1.15zm15.19-3.9a4.33 4.33 0 0 1-4.3 4.53 4.08 4.08 0 0 1-3.43-1.63v1.44h-1.33v-13.5h1.33v6.3a4.08 4.08 0 0 1 3.43-1.66 4.33 4.33 0 0 1 4.3 4.52zm-1.29 0a3.16 3.16 0 0 0-3.22-3.35 3.35 3.35 0 1 0 0 6.7 3.17 3.17 0 0 0 3.22-3.35zm5.47 8.5h-1.49l2-4.32-3.86-8.5h1.5l3.07 6.89 3.15-6.89h1.49zm16.77-14.67v10.48h-1.41V75.93h-4.35v-1.24H238v1.24zm12.65 6.44h-7.4a3.15 3.15 0 0 0 3.13 3.09 3 3 0 0 0 2.94-1.85l1.19.28a4.15 4.15 0 0 1-4.13 2.74 4.53 4.53 0 0 1 .09-9 4.21 4.21 0 0 1 4.23 4.3l-.05.44zm-7.35-1h6a2.84 2.84 0 0 0-2.92-2.62 3.1 3.1 0 0 0-3.08 2.62zm16.53-.56v5.6h-1.3v-1.32a3.86 3.86 0 0 1-3.23 1.54c-1.89 0-3.13-1.08-3.13-2.64s1.2-2.69 3.46-2.69h2.9v-.4a2 2 0 0 0-2.2-2.15 2.21 2.21 0 0 0-2.42 1.73l-1.27-.28a3.42 3.42 0 0 1 3.62-2.62c2.12 0 3.57 1.15 3.57 3.23zm-1.3 2v-.45h-2.92c-1.42 0-2.17.68-2.17 1.63 0 .95.81 1.55 2.05 1.55a2.86 2.86 0 0 0 3.04-2.74v.01zm10.52.64l1.23.33a4.15 4.15 0 0 1-4.08 2.85 4.53 4.53 0 0 1 0-9 4.19 4.19 0 0 1 4.1 2.86l-1.28.39a2.84 2.84 0 0 0-2.82-2 3.17 3.17 0 0 0-3.2 3.3 3.13 3.13 0 0 0 3.2 3.29 2.91 2.91 0 0 0 2.85-2.02zm11.58-2.2v5.16h-1.33v-4.92a2.42 2.42 0 0 0-2.4-2.69c-1.8 0-3 1.22-3 3.46v4.15h-1.32V72.94h1.33v6.28a3.7 3.7 0 0 1 3.25-1.64 3.38 3.38 0 0 1 3.47 3.67zm15.52 5.16h-1.33V77.8l-4.53 8.61H285l-4.55-8.61v8.61h-1.32V74.69h1.2l5.11 9.65 5.1-9.65h1.21zm11-4.04h-7.4a3.15 3.15 0 0 0 3.08 3.09 3 3 0 0 0 2.94-1.85l1.19.28a4.13 4.13 0 0 1-4.13 2.74 4.53 4.53 0 0 1 .09-9 4.2 4.2 0 0 1 4.23 4.3v.44zm-7.34-1h6a2.85 2.85 0 0 0-2.89-2.62 3.09 3.09 0 0 0-3.11 2.62zm14.75-6.68c2.5 0 4.07 1.49 4.07 3.64 0 2.15-1.57 3.67-4.07 3.67h-3.73v4.45h-1.38V74.69h5.11zm0 6a2.41 2.41 0 1 0 0-4.79h-3.73v4.79h3.73zm7.45 3.51a1.12 1.12 0 0 0 1.22 1.16 2.34 2.34 0 0 0 1-.28l.28 1.12a2.82 2.82 0 0 1-1.52.43 2.21 2.21 0 0 1-2.34-2.36V72.94h1.33l.03 11.26zm12.07-1.83h-7.4a3.15 3.15 0 0 0 3.08 3.09 3 3 0 0 0 2.94-1.85l1.19.28a4.15 4.15 0 0 1-4.13 2.74 4.53 4.53 0 0 1 .09-9 4.21 4.21 0 0 1 4.23 4.3v.44zm-7.35-1h6a2.84 2.84 0 0 0-2.88-2.62 3.1 3.1 0 0 0-3.12 2.62zm16.53-.56v5.6h-1.3v-1.32a3.86 3.86 0 0 1-3.23 1.54c-1.89 0-3.14-1.08-3.14-2.64s1.21-2.69 3.47-2.69h2.9v-.4a2 2 0 0 0-2.2-2.15 2.21 2.21 0 0 0-2.38 1.73l-1.27-.28a3.42 3.42 0 0 1 3.62-2.62c2.11 0 3.53 1.15 3.53 3.23zm-1.3 2v-.45h-2.92c-1.42 0-2.17.68-2.17 1.63 0 .95.81 1.55 2.05 1.55a2.86 2.86 0 0 0 3.04-2.74v.01zm4.56.97c.12 1.14 1.17 1.75 2.54 1.75s2.06-.57 2.06-1.47c0-.71-.54-1-1.42-1.24l-2-.44c-1.44-.29-2.24-1-2.24-2.2 0-1.56 1.29-2.6 3.27-2.6s3.2 1 3.51 2.39l-1.27.28a2.09 2.09 0 0 0-2.28-1.59c-1.22 0-1.9.59-1.9 1.42s.47 1 1.31 1.18l2.08.46c1.26.28 2.22.94 2.22 2.26 0 1.69-1.41 2.65-3.48 2.65-2.07 0-3.55-.87-3.76-2.55l1.36-.3zm16.17-1.41h-7.4a3.14 3.14 0 0 0 3.09 3.09 3 3 0 0 0 2.94-1.85l1.19.28a4.15 4.15 0 0 1-4.13 2.74 4.53 4.53 0 0 1 .09-9 4.21 4.21 0 0 1 4.23 4.3l-.01.44zm-7.35-1h6a2.84 2.84 0 0 0-2.88-2.62 3.1 3.1 0 0 0-3.08 2.62h-.04z" fill="#FFF"/></g></svg>