<?xml version="1.0" encoding="UTF-8"?>
<svg width="20px" height="20px" viewBox="0 0 20 20" version="1.1" xmlns="http://www.w3.org/2000/svg" xmlns:xlink="http://www.w3.org/1999/xlink">
    <!-- Generator: Sketch 50 (54983) - http://www.bohemiancoding.com/sketch -->
    <title>kt</title>
    <desc>Created with Sketch.</desc>
    <defs></defs>
    <g stroke="none" stroke-width="1" fill="none" fill-rule="evenodd">
        <g fill="#FFFFFF" fill-rule="nonzero">
            <path d="M5.1277704,0 L14.8722296,4.14336124e-16 C16.6552671,8.6797452e-17 17.3018396,0.185651222 17.9536914,0.534265408 C18.6055433,0.882879593 19.1171204,1.39445674 19.4657346,2.04630859 C19.8143488,2.69816044 20,3.34473292 20,5.1277704 L20,14.8722296 C20,16.6552671 19.8143488,17.3018396 19.4657346,17.9536914 C19.1171204,18.6055433 18.6055433,19.1171204 17.9536914,19.4657346 C17.3018396,19.8143488 16.6552671,20 14.8722296,20 L5.1277704,20 C3.34473292,20 2.69816044,19.8143488 2.04630859,19.4657346 C1.39445674,19.1171204 0.882879593,18.6055433 0.534265408,17.9536914 C0.185651222,17.3018396 2.18359114e-16,16.6552671 0,14.8722296 L2.76224082e-16,5.1277704 C5.78649678e-17,3.34473292 0.185651222,2.69816044 0.534265408,2.04630859 C0.882879593,1.39445674 1.39445674,0.882879593 2.04630859,0.534265408 C2.69816044,0.185651222 3.34473292,3.27538672e-16 5.1277704,0 Z M10,3 C5.58169231,3 2,5.82407692 2,9.30769231 C2,11.5599231 3.49738462,13.5361538 5.74984615,14.6520769 C5.62730769,15.0746923 4.96238462,17.3708462 4.93592308,17.5512308 C4.93592308,17.5512308 4.92,17.6867692 5.00776923,17.7384615 C5.09553846,17.7901538 5.19876923,17.75 5.19876923,17.75 C5.45046154,17.7148462 8.11746154,15.8414615 8.57907692,15.5161538 C9.04023077,15.5814615 9.51507692,15.6153846 10,15.6153846 C14.4183077,15.6153846 18,12.7913846 18,9.30769231 C18,5.82407692 14.4183077,3 10,3 Z M5.57692308,11.5096154 C5.32238462,11.5096154 5.11538462,11.3119231 5.11538462,11.0688462 L5.11538462,8.32692308 L4.39523077,8.32692308 C4.14546154,8.32692308 3.94230769,8.12415385 3.94230769,7.875 C3.94230769,7.62584615 4.14553846,7.42307692 4.39523077,7.42307692 L6.75861538,7.42307692 C7.00838462,7.42307692 7.21153846,7.62584615 7.21153846,7.875 C7.21153846,8.12415385 7.00830769,8.32692308 6.75861538,8.32692308 L6.03846154,8.32692308 L6.03846154,11.0688462 C6.03846154,11.3119231 5.83146154,11.5096154 5.57692308,11.5096154 Z M9.624,11.5036154 C9.43153846,11.5036154 9.28430769,11.4254615 9.23992308,11.2997692 L9.01138462,10.7014615 L7.604,10.7013846 L7.37530769,11.3000769 C7.33107692,11.4255385 7.18392308,11.5036154 6.99146154,11.5036154 C6.89022544,11.503719 6.79015699,11.4819947 6.69807692,11.4399231 C6.57084615,11.3812308 6.44853846,11.2198462 6.58869231,10.7845385 L7.69269231,7.87869231 C7.77046154,7.65769231 8.00669231,7.43 8.30730769,7.42315385 C8.60876923,7.42992308 8.845,7.65769231 8.92292308,7.87915385 L10.0264615,10.7836923 C10.1669231,11.22 10.0446154,11.3814615 9.91738462,11.44 C9.82528261,11.4819969 9.72522505,11.5036926 9.624,11.5036154 C9.62392308,11.5036154 9.624,11.5036154 9.624,11.5036154 Z M8.76869231,9.88392308 L8.30769231,8.57430769 L7.84669231,9.88392308 L8.76869231,9.88392308 Z M10.7692308,11.4423077 C10.5253077,11.4423077 10.3269231,11.2524615 10.3269231,11.0192308 L10.3269231,7.88461538 C10.3269231,7.63007692 10.5383077,7.42307692 10.7980769,7.42307692 C11.0578462,7.42307692 11.2692308,7.63007692 11.2692308,7.88461538 L11.2692308,10.5961538 L12.25,10.5961538 C12.4939231,10.5961538 12.6923077,10.786 12.6923077,11.0192308 C12.6923077,11.2524615 12.4939231,11.4423077 12.25,11.4423077 L10.7692308,11.4423077 Z M13.3333846,11.5036154 C13.0788462,11.5036154 12.8718462,11.2966154 12.8718462,11.0420769 L12.8718462,7.88461538 C12.8718462,7.63007692 13.0788462,7.42307692 13.3333846,7.42307692 C13.5879231,7.42307692 13.7949231,7.63007692 13.7949231,7.88461538 L13.7949231,8.87661538 L15.0826154,7.58892308 C15.1488462,7.52269231 15.2398462,7.48623077 15.3386154,7.48623077 C15.4538462,7.48623077 15.5695385,7.53592308 15.6562308,7.62253846 C15.7370769,7.70330769 15.7853077,7.80723077 15.7919231,7.91515385 C15.7986154,8.024 15.7623846,8.12376923 15.6900769,8.19615385 L14.6383077,9.24776923 L15.7743846,10.7528462 C15.8484762,10.8503759 15.8803936,10.9735295 15.863,11.0947692 C15.8463817,11.2160845 15.7818926,11.3256994 15.6839231,11.3991538 C15.6041097,11.4598197 15.5065597,11.4925527 15.4063077,11.4923077 C15.2612937,11.4929826 15.1245306,11.4249292 15.0376154,11.3088462 L13.9552308,9.87469231 L13.7950769,10.0348462 L13.7950769,11.0418462 C13.7947803,11.2967213 13.5882597,11.5032763 13.3333846,11.5036154 Z"></path>
        </g>
    </g>
</svg>