<?xml version="1.0" encoding="UTF-8"?>
<svg width="20px" height="20px" viewBox="0 0 20 20" version="1.1" xmlns="http://www.w3.org/2000/svg" xmlns:xlink="http://www.w3.org/1999/xlink">
    <!-- Generator: Sketch 48.2 (47327) - http://www.bohemiancoding.com/sketch -->
    <title>li</title>
    <desc>Created with Sketch.</desc>
    <defs></defs>
    <g stroke="none" stroke-width="1" fill="none" fill-rule="evenodd">
        <g transform="translate(0.000000, -140.000000)" fill="#FFFFFF" fill-rule="nonzero">
            <g transform="translate(0.000000, 140.000000)">
                <path d="M5.1277704,0 L14.8722296,4.14336124e-16 C16.6552671,8.6797452e-17 17.3018396,0.185651222 17.9536914,0.534265408 C18.6055433,0.882879593 19.1171204,1.39445674 19.4657346,2.04630859 C19.8143488,2.69816044 20,3.34473292 20,5.1277704 L20,14.8722296 C20,16.6552671 19.8143488,17.3018396 19.4657346,17.9536914 C19.1171204,18.6055433 18.6055433,19.1171204 17.9536914,19.4657346 C17.3018396,19.8143488 16.6552671,20 14.8722296,20 L5.1277704,20 C3.34473292,20 2.69816044,19.8143488 2.04630859,19.4657346 C1.39445674,19.1171204 0.882879593,18.6055433 0.534265408,17.9536914 C0.185651222,17.3018396 2.18359114e-16,16.6552671 0,14.8722296 L2.76224082e-16,5.1277704 C5.78649678e-17,3.34473292 0.185651222,2.69816044 0.534265408,2.04630859 C0.882879593,1.39445674 1.39445674,0.882879593 2.04630859,0.534265408 C2.69816044,0.185651222 3.34473292,3.27538672e-16 5.1277704,0 Z M6.66524215,16.3606545 L6.66524215,8.14018979 C6.66524215,7.88575262 6.45899869,7.67950916 6.20456152,7.67950916 L4.24355367,7.67950916 C3.98911649,7.67950916 3.78287304,7.88575262 3.78287304,8.14018979 L3.78287304,16.3606545 C3.78287304,16.6150916 3.98911649,16.8213351 4.24355367,16.8213351 L6.20456152,16.8213351 C6.45899869,16.8213351 6.66524215,16.6150916 6.66524215,16.3606545 Z M5.22405759,6.90460733 C6.2529843,6.90460733 7.08702879,6.07051701 7.08702879,5.04163613 C7.08702879,4.01275523 6.25293848,3.17866492 5.22405759,3.17866492 C4.1951767,3.17866492 3.36108639,4.01275523 3.36108639,5.04163613 C3.36108639,6.07051701 4.1951767,6.90460733 5.22405759,6.90460733 Z M16.9134162,16.3977617 L16.9134162,12.4192147 C16.9134162,10.689555 16.9327029,7.54157068 13.5631741,7.54157068 C12.0415445,7.54157068 11.3268848,8.09859293 10.8460013,8.82026178 L10.8460013,8.10308246 C10.8460013,7.86916885 10.6563416,7.67950916 10.422428,7.67950916 L8.3872055,7.67950916 C8.15329189,7.67950916 7.9636322,7.86916885 7.9636322,8.10308246 L7.9636322,16.3977617 C7.9636322,16.6316754 8.15329189,16.8213351 8.3872055,16.8213351 L10.422428,16.8213351 C10.6563875,16.8213351 10.8460013,16.6316754 10.8460013,16.3977617 L10.8460013,11.9504254 C10.898822,11.35286 11.1618717,10.0213023 12.45875,10.0213023 C14.1306871,10.0213023 13.9619633,11.9666885 13.9619633,12.5418979 L13.9619633,16.3977617 C13.9619633,16.6316754 14.151623,16.8213351 14.3855367,16.8213351 L16.489843,16.8213351 C16.7237566,16.8213351 16.9134162,16.6316754 16.9134162,16.3977617 Z"></path>
            </g>
        </g>
    </g>
</svg>