<?xml version="1.0" encoding="UTF-8"?>
<svg width="20px" height="20px" viewBox="0 0 20 20" version="1.1" xmlns="http://www.w3.org/2000/svg" xmlns:xlink="http://www.w3.org/1999/xlink">
    <!-- Generator: Sketch 48.2 (47327) - http://www.bohemiancoding.com/sketch -->
    <title>md</title>
    <desc>Created with Sketch.</desc>
    <defs></defs>
    <g stroke="none" stroke-width="1" fill="none" fill-rule="evenodd">
        <g transform="translate(0.000000, -120.000000)" fill="#FFFFFF" fill-rule="nonzero">
            <g transform="translate(0.000000, 120.000000)">
                <path d="M5.1277704,0 L14.8722296,4.14336124e-16 C16.6552671,8.6797452e-17 17.3018396,0.185651222 17.9536914,0.534265408 C18.6055433,0.882879593 19.1171204,1.39445674 19.4657346,2.04630859 C19.8143488,2.69816044 20,3.34473292 20,5.1277704 L20,14.8722296 C20,16.6552671 19.8143488,17.3018396 19.4657346,17.9536914 C19.1171204,18.6055433 18.6055433,19.1171204 17.9536914,19.4657346 C17.3018396,19.8143488 16.6552671,20 14.8722296,20 L5.1277704,20 C3.34473292,20 2.69816044,19.8143488 2.04630859,19.4657346 C1.39445674,19.1171204 0.882879593,18.6055433 0.534265408,17.9536914 C0.185651222,17.3018396 2.18359114e-16,16.6552671 0,14.8722296 L2.76224082e-16,5.1277704 C5.78649678e-17,3.34473292 0.185651222,2.69816044 0.534265408,2.04630859 C0.882879593,1.39445674 1.39445674,0.882879593 2.04630859,0.534265408 C2.69816044,0.185651222 3.34473292,3.27538672e-16 5.1277704,0 Z M3.89729225,6.59123728 L3.89729225,13.6630001 C3.94081024,13.918105 3.86039232,14.1786962 3.68067226,14.3649492 L2,16.4035883 L2,16.6724198 L6.76563956,16.6724198 L6.76563956,16.4035883 L5.0849673,14.3649492 C4.90392913,14.1790045 4.81853164,13.9201305 4.85340802,13.6630001 L4.85340802,7.54708275 L9.03641453,16.6724198 L9.52194207,16.6724198 L13.1148459,7.54708275 L13.1148459,14.8204693 C13.1148459,15.0146254 13.1148459,15.051963 12.9878618,15.1789113 L11.6956116,16.4334585 L11.6956116,16.70229 L17.9701213,16.70229 L17.9701213,16.4334585 L16.722689,15.2087815 C16.6125708,15.1248429 16.5579465,14.9868841 16.5807656,14.8503395 L16.5807656,5.85195057 C16.5579465,5.71540593 16.6125708,5.57744704 16.722689,5.49350853 L18,4.26883154 L18,4 L13.5779645,4 L10.4257703,11.8633223 L6.84033612,4 L2.20168068,4 L2.20168068,4.26883154 L3.69561159,6.0685093 C3.84227176,6.20069995 3.91717103,6.39482835 3.89729225,6.59123728 Z"></path>
            </g>
        </g>
    </g>
</svg>