<?xml version="1.0" encoding="UTF-8"?>
<svg width="20px" height="20px" viewBox="0 0 20 20" version="1.1" xmlns="http://www.w3.org/2000/svg" xmlns:xlink="http://www.w3.org/1999/xlink">
    <!-- Generator: Sketch 51.1 (57501) - http://www.bohemiancoding.com/sketch -->
    <title>Page 1</title>
    <desc>Created with Sketch.</desc>
    <defs>
        <polygon id="path-1" points="0 0.0002 19.9995 0.0002 19.9995 20 0 20"></polygon>
    </defs>
    <g id="Faucet" stroke="none" stroke-width="1" fill="none" fill-rule="evenodd">
        <g id="start" transform="translate(-1064.000000, -947.000000)">
            <g id="Group-8" transform="translate(322.000000, 944.000000)">
                <g id="Group" transform="translate(676.000000, 2.000000)">
                    <g id="Page-1" transform="translate(66.000000, 1.000000)">
                        <mask id="mask-2" fill="white">
                            <use xlink:href="#path-1"></use>
                        </mask>
                        <g id="Clip-2"></g>
                        <path d="M7.312,9.83 L13.826,6.017 C13.943,5.949 14.063,6.099 13.963,6.188 L8.587,10.937 C8.398,11.104 8.276,11.328 8.242,11.571 L8.059,12.861 C8.035,13.033 7.78,13.05 7.73,12.884 L7.026,10.531 C6.945,10.263 7.062,9.976 7.312,9.83 M3.248,9.754 L6.474,10.939 L7.722,14.892 C7.802,15.145 8.117,15.239 8.325,15.071 L10.124,13.628 C10.312,13.476 10.581,13.469 10.777,13.609 L14.021,15.928 C14.244,16.088 14.56,15.967 14.617,15.701 L16.993,4.451 C17.053,4.161 16.764,3.918 16.483,4.025 L3.244,9.053 C2.917,9.177 2.92,9.633 3.248,9.754 M5.128,0 L14.873,0 C16.656,0 17.302,0.185 17.955,0.534 C18.606,0.883 19.118,1.394 19.466,2.046 C19.815,2.698 20,3.345 20,5.127 L20,14.872 C20,16.655 19.815,17.302 19.466,17.953 C19.118,18.605 18.606,19.117 17.955,19.466 C17.302,19.814 16.656,20 14.873,20 L5.128,20 C3.345,20 2.699,19.814 2.047,19.466 C1.395,19.117 0.883,18.605 0.535,17.953 C0.186,17.302 0,16.655 0,14.872 L0,5.127 C0,3.345 0.186,2.698 0.535,2.046 C0.883,1.394 1.395,0.883 2.047,0.534 C2.699,0.185 3.345,0 5.128,0" id="Fill-1" fill="#FFFFFF" mask="url(#mask-2)"></path>
                    </g>
                </g>
            </g>
        </g>
    </g>
</svg>