<?xml version="1.0" encoding="UTF-8"?>
<svg width="20px" height="20px" viewBox="0 0 20 20" version="1.1" xmlns="http://www.w3.org/2000/svg" xmlns:xlink="http://www.w3.org/1999/xlink">
    <!-- Generator: Sketch 51.1 (57501) - http://www.bohemiancoding.com/sketch -->
    <title>Page 1</title>
    <desc>Created with Sketch.</desc>
    <defs>
        <polygon id="path-1" points="0 0.0002 19.9997 0.0002 19.9997 20 0 20"></polygon>
    </defs>
    <g id="Faucet" stroke="none" stroke-width="1" fill="none" fill-rule="evenodd">
        <g id="start" transform="translate(-1031.000000, -947.000000)">
            <g id="Group-8" transform="translate(322.000000, 944.000000)">
                <g id="Group" transform="translate(676.000000, 2.000000)">
                    <g id="Page-1" transform="translate(33.000000, 1.000000)">
                        <mask id="mask-2" fill="white">
                            <use xlink:href="#path-1"></use>
                        </mask>
                        <g id="Clip-2"></g>
                        <path d="M16.2197,7.0402 C16.7807,6.6302 17.2697,6.1202 17.6597,5.5502 C17.1397,5.7692 16.5797,5.9302 15.9997,6.0002 C16.5997,5.6402 17.0497,5.0802 17.2697,4.4092 C16.7097,4.7392 16.0897,4.9792 15.4397,5.1092 C14.9097,4.5502 14.1597,4.2002 13.3297,4.2002 C11.7407,4.2002 10.4397,5.4792 10.4397,7.0692 C10.4397,7.3002 10.4697,7.5192 10.5197,7.7292 C8.1197,7.6092 5.9897,6.4602 4.5697,4.7202 C4.3197,5.1492 4.1797,5.6402 4.1797,6.1702 C4.1797,7.1702 4.6897,8.0502 5.4597,8.5602 C4.9897,8.5502 4.5397,8.4202 4.1597,8.2002 C4.1497,8.2202 4.1497,8.2292 4.1497,8.2392 C4.1497,9.6302 5.1497,10.8002 6.4697,11.0602 C6.2297,11.1302 5.9697,11.1592 5.7097,11.1592 C5.5197,11.1592 5.3397,11.1402 5.1697,11.1092 C5.5297,12.2502 6.5997,13.0902 7.8597,13.1092 C6.8797,13.8802 5.6297,14.3402 4.2797,14.3402 C4.0497,14.3402 3.8197,14.3302 3.5897,14.3002 C4.8697,15.1202 6.3797,15.5902 8.0097,15.5902 C13.3197,15.5902 16.2297,11.2102 16.2297,7.4092 C16.2297,7.2802 16.2197,7.1592 16.2197,7.0402 M5.1277,0.0002 L14.8717,0.0002 C16.6557,0.0002 17.3017,0.1862 17.9537,0.5342 C18.6057,0.8832 19.1167,1.3942 19.4657,2.0462 C19.8147,2.6982 19.9997,3.3452 19.9997,5.1272 L19.9997,14.8722 C19.9997,16.6552 19.8147,17.3022 19.4657,17.9532 C19.1167,18.6052 18.6057,19.1172 17.9537,19.4662 C17.3017,19.8142 16.6557,20.0002 14.8717,20.0002 L5.1277,20.0002 C3.3447,20.0002 2.6987,19.8142 2.0467,19.4662 C1.3947,19.1172 0.8827,18.6052 0.5337,17.9532 C0.1857,17.3022 -0.0003,16.6552 -0.0003,14.8722 L-0.0003,5.1272 C-0.0003,3.3452 0.1857,2.6982 0.5337,2.0462 C0.8827,1.3942 1.3947,0.8832 2.0467,0.5342 C2.6987,0.1862 3.3447,0.0002 5.1277,0.0002" id="Fill-1" fill="#FFFFFF" mask="url(#mask-2)"></path>
                    </g>
                </g>
            </g>
        </g>
    </g>
</svg>