<?xml version="1.0" encoding="UTF-8"?>
<svg width="20px" height="20px" viewBox="0 0 20 20" version="1.1" xmlns="http://www.w3.org/2000/svg" xmlns:xlink="http://www.w3.org/1999/xlink">
    <!-- Generator: Sketch 51.1 (57501) - http://www.bohemiancoding.com/sketch -->
    <title>Page 1</title>
    <desc>Created with Sketch.</desc>
    <defs>
        <polygon id="path-1" points="0.0004 0.0004 20 0.0004 20 20 0.0004 20"></polygon>
    </defs>
    <g id="Faucet" stroke="none" stroke-width="1" fill="none" fill-rule="evenodd">
        <g id="start" transform="translate(-1097.000000, -978.000000)">
            <g id="Group-8" transform="translate(322.000000, 944.000000)">
                <g id="Group" transform="translate(676.000000, 2.000000)">
                    <g id="Page-1" transform="translate(99.000000, 32.000000)">
                        <mask id="mask-2" fill="white">
                            <use xlink:href="#path-1"></use>
                        </mask>
                        <g id="Clip-2"></g>
                        <path d="M13.3174,8.4074 C12.9264,9.9734 10.5144,9.1784 9.7314,8.9824 L10.4214,6.2154 C11.2044,6.4094 13.7244,6.7744 13.3174,8.4074 M12.8884,12.8744 C12.4604,14.5944 9.5614,13.6644 8.6224,13.4314 L9.3834,10.3794 C10.3224,10.6144 13.3364,11.0784 12.8884,12.8744 M16.0554,8.4324 C16.3074,6.7514 15.0274,5.8474 13.2774,5.2444 L13.8444,2.9674 L12.4594,2.6214 L11.9064,4.8394 C11.5414,4.7484 11.1674,4.6624 10.7954,4.5774 L11.3514,2.3454 L9.9664,2.0004 L9.3984,4.2764 C9.0964,4.2084 8.8004,4.1394 8.5134,4.0684 L8.5144,4.0614 L6.6024,3.5844 L6.2344,5.0644 C6.2344,5.0644 7.2624,5.3004 7.2404,5.3154 C7.8024,5.4554 7.9034,5.8264 7.8864,6.1214 L7.2404,8.7164 C7.2784,8.7254 7.3294,8.7404 7.3844,8.7614 C7.3384,8.7504 7.2884,8.7384 7.2374,8.7254 L6.3314,12.3604 C6.2624,12.5304 6.0884,12.7864 5.6954,12.6894 C5.7094,12.7094 4.6884,12.4374 4.6884,12.4374 L4.0004,14.0244 L5.8044,14.4744 C6.1394,14.5584 6.4684,14.6464 6.7924,14.7294 L6.2184,17.0334 L7.6034,17.3784 L8.1714,15.0994 C8.5494,15.2024 8.9174,15.2974 9.2764,15.3864 L8.7104,17.6544 L10.0964,18.0004 L10.6704,15.7014 C13.0344,16.1484 14.8114,15.9684 15.5594,13.8294 C16.1624,12.1084 15.5294,11.1154 14.2864,10.4684 C15.1914,10.2594 15.8744,9.6634 16.0554,8.4324 M5.1284,0.0004 L14.8724,0.0004 C16.6554,0.0004 17.3014,0.1854 17.9544,0.5344 C18.6054,0.8834 19.1174,1.3944 19.4654,2.0464 C19.8144,2.6984 20.0004,3.3454 20.0004,5.1274 L20.0004,14.8724 C20.0004,16.6554 19.8144,17.3024 19.4654,17.9534 C19.1174,18.6054 18.6054,19.1174 17.9544,19.4664 C17.3014,19.8144 16.6554,20.0004 14.8724,20.0004 L5.1284,20.0004 C3.3444,20.0004 2.6984,19.8144 2.0464,19.4664 C1.3944,19.1174 0.8824,18.6054 0.5344,17.9534 C0.1854,17.3024 0.0004,16.6554 0.0004,14.8724 L0.0004,5.1274 C0.0004,3.3454 0.1854,2.6984 0.5344,2.0464 C0.8824,1.3944 1.3944,0.8834 2.0464,0.5344 C2.6984,0.1854 3.3444,0.0004 5.1284,0.0004" id="Fill-1" fill="#FFFFFF" mask="url(#mask-2)"></path>
                    </g>
                </g>
            </g>
        </g>
    </g>
</svg>