<?xml version="1.0" encoding="UTF-8"?>
<svg width="20px" height="20px" viewBox="0 0 20 20" version="1.1" xmlns="http://www.w3.org/2000/svg" xmlns:xlink="http://www.w3.org/1999/xlink">
    <!-- Generator: Sketch 51.1 (57501) - http://www.bohemiancoding.com/sketch -->
    <title>Fill 1</title>
    <desc>Created with Sketch.</desc>
    <defs></defs>
    <g id="Faucet" stroke="none" stroke-width="1" fill="none" fill-rule="evenodd">
        <g id="start" transform="translate(-998.000000, -947.000000)" fill="#FFFFFF">
            <g id="Group-8" transform="translate(322.000000, 944.000000)">
                <g id="Group" transform="translate(676.000000, 2.000000)">
                    <g id="Page-1" transform="translate(0.000000, 1.000000)">
                        <path d="M16.2695,14.05 C16.4505,14.05 16.6105,13.97 16.6105,13.68 C16.6105,13.31 16.1105,12.63 15.3605,11.83 C15.0495,11.42 14.5405,10.98 14.3795,10.77 C14.1505,10.53 14.2195,10.39 14.3795,10.14 C14.3795,10.14 16.1105,7.71 16.2905,6.909 C16.3395,6.63 16.2195,6.47 15.9195,6.47 L14.4105,6.47 C14.0705,6.47 13.9405,6.62 13.8395,6.83 C13.8395,6.83 13.0305,8.56 12.0405,9.64 C11.7195,9.989 11.5595,10.1 11.3795,10.1 C11.2405,10.1 11.1795,9.98 11.1795,9.659 L11.1795,6.89 C11.1795,6.5 11.1295,6.39 10.8105,6.39 L8.3995,6.39 C8.2205,6.39 8.1005,6.489 8.1005,6.64 C8.1005,7 8.6605,7.09 8.6605,8.08 L8.6605,10.12 C8.6605,10.53 8.6405,10.69 8.4395,10.69 C7.9305,10.69 6.7005,8.92 6.0095,6.909 C5.8705,6.5 5.7205,6.39 5.3305,6.39 L3.8305,6.39 C3.6095,6.39 3.4505,6.54 3.4505,6.75 C3.4505,7.15 3.9195,9 5.7695,11.48 C7.0095,13.151 8.6405,14.05 10.1095,14.05 C10.9995,14.05 11.2195,13.901 11.2195,13.52 L11.2195,12.239 C11.2195,11.92 11.3495,11.79 11.5305,11.79 C11.7405,11.79 12.0995,11.85 12.9595,12.691 C13.9695,13.651 14.0405,14.05 14.5895,14.05 L16.2695,14.05 Z M5.1275,0 L14.8725,0 C16.6555,0 17.3015,0.186 17.9545,0.534 C18.6055,0.883 19.1175,1.395 19.4655,2.047 C19.8145,2.698 19.9995,3.345 19.9995,5.128 L19.9995,14.872 C19.9995,16.655 19.8145,17.302 19.4655,17.953 C19.1175,18.606 18.6055,19.117 17.9545,19.466 C17.3015,19.815 16.6555,20 14.8725,20 L5.1275,20 C3.3445,20 2.6985,19.815 2.0465,19.466 C1.3945,19.117 0.8825,18.606 0.5345,17.953 C0.1855,17.302 -0.0005,16.655 -0.0005,14.872 L-0.0005,5.128 C-0.0005,3.345 0.1855,2.698 0.5345,2.047 C0.8825,1.395 1.3945,0.883 2.0465,0.534 C2.6985,0.186 3.3445,0 5.1275,0 Z" id="Fill-1"></path>
                    </g>
                </g>
            </g>
        </g>
    </g>
</svg>