<?xml version="1.0" encoding="UTF-8"?>
<svg width="20px" height="20px" viewBox="0 0 20 20" version="1.1" xmlns="http://www.w3.org/2000/svg" xmlns:xlink="http://www.w3.org/1999/xlink">
    <!-- Generator: Sketch 51.1 (57501) - http://www.bohemiancoding.com/sketch -->
    <title>Page 1</title>
    <desc>Created with Sketch.</desc>
    <defs>
        <polygon id="path-1" points="0.0005 0.0005 20 0.0005 20 20 0.0005 20"></polygon>
    </defs>
    <g id="Faucet" stroke="none" stroke-width="1" fill="none" fill-rule="evenodd">
        <g id="start" transform="translate(-1097.000000, -946.000000)">
            <g id="Group-8" transform="translate(322.000000, 944.000000)">
                <g id="Group" transform="translate(676.000000, 2.000000)">
                    <g id="Page-1" transform="translate(99.000000, 0.000000)">
                        <mask id="mask-2" fill="white">
                            <use xlink:href="#path-1"></use>
                        </mask>
                        <g id="Clip-2"></g>
                        <path d="M3.8975,6.5915 L3.8975,13.6635 C3.9405,13.9185 3.8605,14.1785 3.6805,14.3655 L2.0005,16.4035 L2.0005,16.6725 L6.7655,16.6725 L6.7655,16.4035 L5.0845,14.3655 C4.9035,14.1785 4.8185,13.9205 4.8535,13.6635 L4.8535,7.5475 L9.0365,16.6725 L9.5225,16.6725 L13.1155,7.5475 L13.1155,14.8205 C13.1155,15.0145 13.1155,15.0515 12.9885,15.1785 L11.6955,16.4335 L11.6955,16.7025 L17.9695,16.7025 L17.9695,16.4335 L16.7225,15.2095 C16.6125,15.1255 16.5575,14.9865 16.5815,14.8505 L16.5815,5.8515 C16.5575,5.7155 16.6125,5.5775 16.7225,5.4935 L18.0005,4.2685 L18.0005,4.0005 L13.5785,4.0005 L10.4255,11.8635 L6.8405,4.0005 L2.2015,4.0005 L2.2015,4.2685 L3.6955,6.0685 C3.8425,6.2005 3.9175,6.3945 3.8975,6.5915 M5.1275,0.0005 L14.8725,0.0005 C16.6555,0.0005 17.3015,0.1855 17.9545,0.5345 C18.6055,0.8835 19.1175,1.3945 19.4655,2.0465 C19.8145,2.6985 20.0005,3.3445 20.0005,5.1275 L20.0005,14.8725 C20.0005,16.6555 19.8145,17.3015 19.4655,17.9535 C19.1175,18.6055 18.6055,19.1175 17.9545,19.4665 C17.3015,19.8145 16.6555,20.0005 14.8725,20.0005 L5.1275,20.0005 C3.3445,20.0005 2.6985,19.8145 2.0465,19.4665 C1.3945,19.1175 0.8825,18.6055 0.5345,17.9535 C0.1855,17.3015 0.0005,16.6555 0.0005,14.8725 L0.0005,5.1275 C0.0005,3.3445 0.1855,2.6985 0.5345,2.0465 C0.8825,1.3945 1.3945,0.8835 2.0465,0.5345 C2.6985,0.1855 3.3445,0.0005 5.1275,0.0005" id="Fill-1" fill="#FFFFFF" mask="url(#mask-2)"></path>
                    </g>
                </g>
            </g>
        </g>
    </g>
</svg>