<?xml version="1.0" encoding="UTF-8"?>
<svg width="20px" height="20px" viewBox="0 0 20 20" version="1.1" xmlns="http://www.w3.org/2000/svg" xmlns:xlink="http://www.w3.org/1999/xlink">
    <!-- Generator: Sketch 48.2 (47327) - http://www.bohemiancoding.com/sketch -->
    <title>Shape</title>
    <desc>Created with Sketch.</desc>
    <defs></defs>
    <g id="Page-1" stroke="none" stroke-width="1" fill="none" fill-rule="evenodd">
        <g id="yt" fill="#FFFFFF" fill-rule="nonzero">
            <path d="M12.7450993,20 C12.7526824,18.3975453 12.756474,17.1517879 12.756474,16.2627276 C12.756474,15.2439438 12.4070553,14.5774497 12.0153243,14.2401221 C14.4476058,13.9694439 17,13.0458736 17,8.84968137 C17,7.65679302 16.5782407,6.68153538 15.8780385,5.9171075 C15.9899617,5.64098853 16.3639488,4.53107189 15.7688451,3.02669958 C15.7688451,3.02669958 14.8529861,2.73289812 12.7687583,4.14613756 C11.8965765,3.9026632 10.9616086,3.78296631 10.0348301,3.77752554 C9.10532188,3.78160612 8.17171887,3.9026632 7.30090203,4.14477737 C5.21530933,2.73153792 4.29808531,3.02533939 4.29808531,3.02533939 C3.70434656,4.5283515 4.07833373,5.63962834 4.19162181,5.91574731 C3.49278447,6.68017519 3.06693046,7.65543283 3.06693046,8.84832118 C3.06693046,13.0336318 5.61659483,13.9708041 8.04068687,14.2469231 C7.72812095,14.5203217 7.44558319,15.0018296 7.34730919,15.7077692 C6.72490718,15.9879688 5.14296874,16.4694767 4.16841823,14.8005212 C4.16841823,14.8005212 3.59242339,13.7518132 2.49639529,13.6742823 C2.49639529,13.6742823 1.43039536,13.6606803 2.42268979,14.3380559 C2.42268979,14.3380559 3.13927105,14.6740233 3.63473581,15.9362815 C3.63473581,15.9362815 4.27624665,18.0609013 7.31318628,17.4012082 C7.31641735,17.94054 7.32072403,18.8068039 7.3261063,20 L5.1277704,20 C3.34473292,20 2.69816044,19.8143488 2.04630859,19.4657346 C1.39445674,19.1171204 0.882879593,18.6055433 0.534265408,17.9536914 C0.185651222,17.3018396 2.18359114e-16,16.6552671 0,14.8722296 L2.76224082e-16,5.1277704 C5.78649678e-17,3.34473292 0.185651222,2.69816044 0.534265408,2.04630859 C0.882879593,1.39445674 1.39445674,0.882879593 2.04630859,0.534265408 C2.69816044,0.185651222 3.34473292,3.27538672e-16 5.1277704,0 L14.8722296,4.14336124e-16 C16.6552671,8.6797452e-17 17.3018396,0.185651222 17.9536914,0.534265408 C18.6055433,0.882879593 19.1171204,1.39445674 19.4657346,2.04630859 C19.8143488,2.69816044 20,3.34473292 20,5.1277704 L20,14.8722296 C20,16.6552671 19.8143488,17.3018396 19.4657346,17.9536914 C19.1171204,18.6055433 18.6055433,19.1171204 17.9536914,19.4657346 C17.3018396,19.8143488 16.6552671,20 14.8722296,20 L12.7450993,20 Z" id="Shape"></path>
        </g>
    </g>
</svg>