<?xml version="1.0" encoding="UTF-8"?>
<svg width="20px" height="20px" viewBox="0 0 20 20" version="1.1" xmlns="http://www.w3.org/2000/svg" xmlns:xlink="http://www.w3.org/1999/xlink">
    <!-- Generator: Sketch 48.2 (47327) - http://www.bohemiancoding.com/sketch -->
    <title>rd</title>
    <desc>Created with Sketch.</desc>
    <defs></defs>
    <g stroke="none" stroke-width="1" fill="none" fill-rule="evenodd">
        <g transform="translate(0.000000, -100.000000)" fill="#FFFFFF" fill-rule="nonzero">
            <g transform="translate(0.000000, 100.000000)">
                <path d="M5.1277704,0 L14.8722296,4.14336124e-16 C16.6552671,8.6797452e-17 17.3018396,0.185651222 17.9536914,0.534265408 C18.6055433,0.882879593 19.1171204,1.39445674 19.4657346,2.04630859 C19.8143488,2.69816044 20,3.34473292 20,5.1277704 L20,14.8722296 C20,16.6552671 19.8143488,17.3018396 19.4657346,17.9536914 C19.1171204,18.6055433 18.6055433,19.1171204 17.9536914,19.4657346 C17.3018396,19.8143488 16.6552671,20 14.8722296,20 L5.1277704,20 C3.34473292,20 2.69816044,19.8143488 2.04630859,19.4657346 C1.39445674,19.1171204 0.882879593,18.6055433 0.534265408,17.9536914 C0.185651222,17.3018396 2.18359114e-16,16.6552671 0,14.8722296 L2.76224082e-16,5.1277704 C5.78649678e-17,3.34473292 0.185651222,2.69816044 0.534265408,2.04630859 C0.882879593,1.39445674 1.39445674,0.882879593 2.04630859,0.534265408 C2.69816044,0.185651222 3.34473292,3.27538672e-16 5.1277704,0 Z M16.2712245,11.2312245 C16.782449,10.9585714 17.1057143,10.4332653 17.1063265,9.84265306 C17.1063265,8.97183673 16.3977551,8.26346939 15.5271429,8.26346939 C15.1142857,8.26346939 14.7316327,8.42959184 14.4389796,8.7122449 C13.362449,7.99959184 11.9046939,7.5455102 10.2908163,7.4877551 L11.172449,4.70040816 L13.5587755,5.26244898 C13.5583673,5.2744898 13.5553061,5.28510204 13.5553061,5.29714286 C13.5553061,6.00897959 14.1344898,6.58857143 14.8467347,6.58857143 C15.5583673,6.58857143 16.1377551,6.00897959 16.1377551,5.29714286 C16.1377551,4.58530612 15.5583673,4.00612245 14.8467347,4.00612245 C14.3,4.00612245 13.8342857,4.34836735 13.6461224,4.82877551 L11.0738776,4.22326531 C10.9618367,4.19632653 10.8471429,4.26122449 10.8120408,4.37204082 L9.82938776,7.48 C8.14163265,7.50040816 6.61265306,7.95714286 5.48897959,8.68979592 C5.19836735,8.42183673 4.81959184,8.26367347 4.42183673,8.26367347 C3.55142857,8.26367347 2.84346939,8.97163265 2.84346939,9.84265306 C2.84346939,10.4065306 3.14632653,10.9212245 3.6255102,11.2022449 C3.59530612,11.3687755 3.57530612,11.5373469 3.57530612,11.7095918 C3.57530612,14.0440816 6.43244898,15.9430612 9.94489796,15.9430612 C13.457551,15.9430612 16.315102,14.0440816 16.315102,11.7095918 C16.315102,11.5473469 16.2979592,11.3883673 16.2712245,11.2312245 Z M5.12204082,8.95163265 C4.46142857,9.46102041 3.98204082,10.0753061 3.74571429,10.7516327 C3.46102041,10.5408163 3.28571429,10.2057143 3.28571429,9.84244898 C3.28571429,9.2155102 3.79510204,8.70530612 4.42163265,8.70530612 C4.67714286,8.70530612 4.92265306,8.79530612 5.12204082,8.95163265 Z M15.5265306,8.70530612 C16.1538776,8.70530612 16.6632653,9.2155102 16.6632653,9.84244898 C16.6632653,10.2295918 16.4695918,10.5771429 16.1571429,10.785102 C15.9283673,10.105102 15.4544898,9.48673469 14.7979592,8.97326531 C15.0012245,8.80306122 15.2555102,8.70530612 15.5265306,8.70530612 Z M6.87020408,10.9263265 C6.87020408,10.4081633 7.29183673,9.98653061 7.81,9.98653061 C8.32816327,9.98653061 8.74959184,10.4081633 8.74959184,10.9263265 C8.74959184,11.4444898 8.32836735,11.8659184 7.81,11.8659184 C7.29163265,11.8659184 6.87020408,11.4444898 6.87020408,10.9263265 Z M12.2544898,13.712449 C11.7810204,14.1863265 11.037551,14.4163265 9.98204082,14.4163265 C9.97959184,14.4163265 9.97734694,14.4144898 9.9744898,14.4144898 C9.97163265,14.4144898 9.96938776,14.4163265 9.96653061,14.4163265 C8.91102041,14.4163265 8.1677551,14.1863265 7.69408163,13.712449 C7.60795918,13.6263265 7.60795918,13.4865306 7.69408163,13.4 C7.78061224,13.3138776 7.92040816,13.3138776 8.00693878,13.4 C8.39326531,13.7867347 9.03408163,13.9742857 9.96653061,13.9742857 C9.96938776,13.9742857 9.97163265,13.9759184 9.9744898,13.9759184 C9.97734694,13.9759184 9.97959184,13.9742857 9.98204082,13.9742857 C10.9146939,13.9742857 11.5557143,13.7865306 11.9420408,13.4 C12.0285714,13.3138776 12.1683673,13.3138776 12.254898,13.4 C12.3410204,13.4865306 12.3410204,13.6265306 12.2544898,13.712449 Z M12.142449,11.8659184 C11.6246939,11.8659184 11.2028571,11.444898 11.2028571,10.9263265 C11.2028571,10.4077551 11.6242857,9.98653061 12.142449,9.98653061 C12.6606122,9.98653061 13.0820408,10.4081633 13.0820408,10.9263265 C13.0820408,11.4444898 12.6606122,11.8659184 12.142449,11.8659184 Z"></path>
            </g>
        </g>
    </g>
</svg>