<?xml version="1.0" encoding="UTF-8"?>
<svg width="20px" height="20px" viewBox="0 0 20 20" version="1.1" xmlns="http://www.w3.org/2000/svg" xmlns:xlink="http://www.w3.org/1999/xlink">
    <!-- Generator: Sketch 51.1 (57501) - http://www.bohemiancoding.com/sketch -->
    <title>Page 1</title>
    <desc>Created with Sketch.</desc>
    <defs>
        <polygon id="path-1" points="0 0.0004 19.9995 0.0004 19.9995 20 0 20"></polygon>
    </defs>
    <g id="Faucet" stroke="none" stroke-width="1" fill="none" fill-rule="evenodd">
        <g id="start" transform="translate(-1064.000000, -978.000000)">
            <g id="Group-8" transform="translate(322.000000, 944.000000)">
                <g id="Group" transform="translate(676.000000, 2.000000)">
                    <g id="Page-1" transform="translate(66.000000, 32.000000)">
                        <mask id="mask-2" fill="white">
                            <use xlink:href="#path-1"></use>
                        </mask>
                        <g id="Clip-2"></g>
                        <path d="M13.0605,19.9904 L13.0705,12.8494 L15.5505,12.8494 C15.7705,12.8494 15.9595,12.6784 15.9805,12.4604 L16.2605,10.1604 C16.2895,9.9004 16.0805,9.6694 15.8205,9.6694 L13.0605,9.6694 L13.0605,7.7404 C13.0605,6.8704 13.3005,6.2704 14.5605,6.2704 L15.7205,6.2704 C15.9595,6.2704 16.1605,6.0804 16.1605,5.8304 L16.1605,3.8904 C16.1605,3.6504 15.9595,3.4504 15.7205,3.4504 L13.8205,3.4504 C11.5105,3.4504 9.9305,4.8604 9.9305,7.4404 L9.9305,9.6694 L8.0705,9.6694 C7.8305,9.6694 7.6305,9.8704 7.6305,10.1104 L7.6405,12.4104 C7.6405,12.6504 7.8405,12.8494 8.0805,12.8494 L9.9405,12.8494 L9.9305,19.9904 L13.0605,19.9904 Z M5.1275,0.0004 L14.8725,0.0004 C16.6555,0.0004 17.3015,0.1854 17.9545,0.5344 C18.6055,0.8834 19.1175,1.3944 19.4655,2.0464 C19.8145,2.6984 19.9995,3.3444 19.9995,5.1274 L19.9995,14.8724 C19.9995,16.6554 19.8145,17.3024 19.4655,17.9534 C19.1175,18.6054 18.6055,19.1174 17.9545,19.4664 C17.3015,19.8144 16.6555,20.0004 14.8725,20.0004 L5.1275,20.0004 C3.3445,20.0004 2.6985,19.8144 2.0465,19.4664 C1.3945,19.1174 0.8825,18.6054 0.5345,17.9534 C0.1855,17.3024 -0.0005,16.6554 -0.0005,14.8724 L-0.0005,5.1274 C-0.0005,3.3444 0.1855,2.6984 0.5345,2.0464 C0.8825,1.3944 1.3945,0.8834 2.0465,0.5344 C2.6985,0.1854 3.3445,0.0004 5.1275,0.0004 Z" id="Fill-1" fill="#FFFFFF" mask="url(#mask-2)"></path>
                    </g>
                </g>
            </g>
        </g>
    </g>
</svg>