<?xml version="1.0" encoding="UTF-8"?>
<svg width="20px" height="20px" viewBox="0 0 20 20" version="1.1" xmlns="http://www.w3.org/2000/svg" xmlns:xlink="http://www.w3.org/1999/xlink">
    <!-- Generator: Sketch 51.1 (57501) - http://www.bohemiancoding.com/sketch -->
    <title>Page 1</title>
    <desc>Created with Sketch.</desc>
    <defs>
        <polygon id="path-1" points="0.0001 0.0002 20 0.0002 20 20 0.0001 20"></polygon>
    </defs>
    <g id="Faucet" stroke="none" stroke-width="1" fill="none" fill-rule="evenodd">
        <g id="start" transform="translate(-1031.000000, -978.000000)">
            <g id="Group-8" transform="translate(322.000000, 944.000000)">
                <g id="Group" transform="translate(676.000000, 2.000000)">
                    <g id="Page-1" transform="translate(33.000000, 32.000000)">
                        <mask id="mask-2" fill="white">
                            <use xlink:href="#path-1"></use>
                        </mask>
                        <g id="Clip-2"></g>
                        <path d="M14.995,7.955 C14.99,8.43 14.985,8.908 14.983,9.383 C14.505,9.388 14.03,9.39 13.555,9.392 L13.555,10.815 C14.03,10.818 14.508,10.82 14.983,10.825 C14.987,11.301 14.987,11.775 14.992,12.253 C15.465,12.253 15.94,12.251 16.416,12.253 C16.418,11.775 16.42,11.301 16.426,10.823 C16.9,10.821 17.378,10.818 17.853,10.816 L17.853,9.392 C17.378,9.39 16.9,9.388 16.426,9.383 C16.423,8.908 16.418,8.43 16.416,7.955 L14.995,7.955 Z M2.115,10.104 C2.072,12.191 3.509,14.183 5.486,14.832 C7.349,15.458 9.639,14.99 10.878,13.394 C11.783,12.277 11.988,10.787 11.891,9.395 C10.296,9.381 8.701,9.386 7.108,9.388 C7.105,9.956 7.108,10.522 7.11,11.091 C8.065,11.117 9.021,11.105 9.975,11.124 C9.735,11.95 9.185,12.719 8.352,13.017 C6.743,13.726 4.689,12.8 4.183,11.112 C3.572,9.496 4.572,7.544 6.224,7.074 C7.249,6.714 8.304,7.12 9.181,7.652 C9.625,7.237 10.04,6.792 10.449,6.344 C9.453,5.51 8.173,4.999 6.857,5.112 C4.276,5.142 2.017,7.525 2.115,10.104 Z M5.128,0 L14.872,0 C16.655,0 17.302,0.185 17.954,0.534 C18.605,0.883 19.117,1.394 19.466,2.046 C19.814,2.698 20,3.345 20,5.127 L20,14.872 C20,16.655 19.814,17.302 19.466,17.953 C19.117,18.605 18.605,19.117 17.954,19.466 C17.302,19.814 16.655,20 14.872,20 L5.128,20 C3.345,20 2.698,19.814 2.046,19.466 C1.394,19.117 0.883,18.605 0.534,17.953 C0.185,17.302 0,16.655 0,14.872 L0,5.127 C0,3.345 0.185,2.698 0.534,2.046 C0.883,1.394 1.394,0.883 2.046,0.534 C2.698,0.185 3.345,0 5.128,0 Z" id="Fill-1" fill="#FFFFFF" mask="url(#mask-2)"></path>
                    </g>
                </g>
            </g>
        </g>
    </g>
</svg>