<?xml version="1.0" encoding="UTF-8"?>
<svg width="20px" height="20px" viewBox="0 0 20 20" version="1.1" xmlns="http://www.w3.org/2000/svg" xmlns:xlink="http://www.w3.org/1999/xlink">
    <!-- Generator: Sketch 51.1 (57501) - http://www.bohemiancoding.com/sketch -->
    <title>Page 1</title>
    <desc>Created with Sketch.</desc>
    <defs>
        <polygon id="path-1" points="0 0 19.9996 0 19.9996 19.9998 0 19.9998"></polygon>
    </defs>
    <g id="Faucet" stroke="none" stroke-width="1" fill="none" fill-rule="evenodd">
        <g id="start" transform="translate(-998.000000, -978.000000)">
            <g id="Group-8" transform="translate(322.000000, 944.000000)">
                <g id="Group" transform="translate(676.000000, 2.000000)">
                    <g id="Page-1" transform="translate(0.000000, 32.000000)">
                        <mask id="mask-2" fill="white">
                            <use xlink:href="#path-1"></use>
                        </mask>
                        <g id="Clip-2"></g>
                        <path d="M12.3906,9.9948 C12.3906,11.2748 11.3366,12.3178 10.0576,12.3178 C8.7656,12.3178 7.7236,11.2748 7.7236,9.9948 C7.7236,8.7148 8.7656,7.6818 10.0576,7.6818 C11.3366,7.6818 12.3906,8.7148 12.3906,9.9948 Z M13.7116,7.1558 C14.1766,7.1558 14.5476,6.7728 14.5476,6.3078 C14.5476,5.8538 14.1766,5.4718 13.7116,5.4718 C13.2476,5.4718 12.8656,5.8538 12.8656,6.3078 C12.8656,6.7728 13.2476,7.1558 13.7116,7.1558 Z M10.0576,13.4848 C11.9886,13.4848 13.5566,11.9158 13.5566,9.9948 C13.5566,8.0738 11.9886,6.5148 10.0576,6.5148 C8.1256,6.5148 6.5576,8.0738 6.5576,9.9948 C6.5576,11.9158 8.1256,13.4848 10.0576,13.4848 Z M12.9996,4.3568 C14.5066,4.3568 15.7266,5.5758 15.7266,7.0618 L15.7266,12.9268 C15.7266,14.4248 14.5066,15.6328 12.9996,15.6328 L7.1036,15.6328 C5.6066,15.6328 4.3886,14.4248 4.3886,12.9268 L4.3886,7.0618 C4.3886,5.5758 5.6066,4.3568 7.1036,4.3568 L12.9996,4.3568 Z M16.9026,12.9278 L16.9026,7.0628 C16.9026,4.9258 15.1476,3.1908 12.9986,3.1908 L7.1036,3.1908 C4.9566,3.1908 3.2116,4.9258 3.2116,7.0628 L3.2116,12.9278 C3.2116,15.0658 4.9566,16.7998 7.1036,16.7998 L12.9986,16.7998 C15.1476,16.7998 16.9026,15.0658 16.9026,12.9278 Z M5.1276,-0.0002 L14.8716,-0.0002 C16.6556,-0.0002 17.3016,0.1858 17.9536,0.5348 C18.6056,0.8828 19.1176,1.3948 19.4656,2.0468 C19.8146,2.6988 19.9996,3.3448 19.9996,5.1278 L19.9996,14.8718 C19.9996,16.6558 19.8146,17.3018 19.4656,17.9528 C19.1176,18.6058 18.6056,19.1178 17.9536,19.4658 C17.3016,19.8148 16.6556,19.9998 14.8716,19.9998 L5.1276,19.9998 C3.3446,19.9998 2.6986,19.8148 2.0466,19.4658 C1.3946,19.1178 0.8826,18.6058 0.5346,17.9528 C0.1856,17.3018 -0.0004,16.6558 -0.0004,14.8718 L-0.0004,5.1278 C-0.0004,3.3448 0.1856,2.6988 0.5346,2.0468 C0.8826,1.3948 1.3946,0.8828 2.0466,0.5348 C2.6986,0.1858 3.3446,-0.0002 5.1276,-0.0002 Z" id="Fill-1" fill="#FFFFFF" mask="url(#mask-2)"></path>
                    </g>
                </g>
            </g>
        </g>
    </g>
</svg>