<?xml version="1.0" encoding="UTF-8"?>
<svg width="20px" height="20px" viewBox="0 0 20 20" version="1.1" xmlns="http://www.w3.org/2000/svg" xmlns:xlink="http://www.w3.org/1999/xlink">
    <!-- Generator: Sketch 49.2 (51160) - http://www.bohemiancoding.com/sketch -->
    <title>wb</title>
    <desc>Created with Sketch.</desc>
    <defs></defs>
    <g stroke="none" stroke-width="1" fill="none" fill-rule="evenodd">
        <g fill="#FFFFFF" fill-rule="nonzero">
            <path d="M5.1277704,0 L14.8722296,4.14336124e-16 C16.6552671,8.6797452e-17 17.3018396,0.185651222 17.9536914,0.534265408 C18.6055433,0.882879593 19.1171204,1.39445674 19.4657346,2.04630859 C19.8143488,2.69816044 20,3.34473292 20,5.1277704 L20,14.8722296 C20,16.6552671 19.8143488,17.3018396 19.4657346,17.9536914 C19.1171204,18.6055433 18.6055433,19.1171204 17.9536914,19.4657346 C17.3018396,19.8143488 16.6552671,20 14.8722296,20 L5.1277704,20 C3.34473292,20 2.69816044,19.8143488 2.04630859,19.4657346 C1.39445674,19.1171204 0.882879593,18.6055433 0.534265408,17.9536914 C0.185651222,17.3018396 -1.55799772e-15,16.6552671 -1.77635684e-15,14.8722296 L-1.50013276e-15,5.1277704 C-1.71849187e-15,3.34473292 0.185651222,2.69816044 0.534265408,2.04630859 C0.882879593,1.39445674 1.39445674,0.882879593 2.04630859,0.534265408 C2.69816044,0.185651222 3.34473292,3.27538672e-16 5.1277704,0 Z M16.9821518,4.41592101 C16.5000086,3.83832151 15.9274636,3.42116631 15.2645167,3.19654428 C14.6015699,2.97192225 13.9084891,2.93983338 13.2154083,3.10027769 C13.0647385,3.13236655 12.9442028,3.22863314 12.8538009,3.35698858 C12.7633991,3.48534403 12.7332651,3.64578834 12.7633991,3.80623264 C12.793533,3.96667695 12.8839349,4.0950324 13.0044707,4.19129898 C13.1551404,4.28756557 13.3058101,4.31965443 13.4564799,4.28756557 C13.938623,4.15921012 14.4207662,4.19129898 14.9029094,4.35174329 C15.3850525,4.5121876 15.7767938,4.80098735 16.1384012,5.21814255 C16.4698746,5.63529775 16.7109462,6.08454181 16.8013481,6.63005245 C16.8917499,7.1755631 16.861616,7.68898488 16.7109462,8.1703178 C16.6506783,8.36285097 16.6808123,8.49120642 16.7410802,8.65165073 C16.8013481,8.78000617 16.9218839,8.87627276 17.0725536,8.94045048 C17.2533573,9.0046282 17.3738931,8.97253934 17.5245628,8.90836162 C17.6450986,8.84418389 17.7355004,8.71582845 17.7957683,8.55538414 C18.006706,7.88151805 18.0669739,7.1755631 17.9163041,6.40543042 C17.7957683,5.66738661 17.4642949,4.99352052 16.9821518,4.41592101 Z M14.6317038,5.28232027 C14.3002304,5.18605369 13.968757,5.15396483 13.6071496,5.25023141 C13.4866138,5.28232027 13.366078,5.34649799 13.3058101,5.47485344 C13.2455422,5.57112002 13.2154083,5.73156433 13.2455422,5.85991978 C13.2756762,5.98827522 13.3359441,6.11663067 13.4564799,6.18080839 C13.5770157,6.24498612 13.7276854,6.27707498 13.8482212,6.24498612 C14.2098286,6.18080839 14.511168,6.27707498 14.7522396,6.56587473 C14.9933112,6.85467448 15.083713,7.1755631 14.9631773,7.56062944 C14.9330433,7.68898488 14.9330433,7.81734033 14.9933112,7.94569577 C15.0535791,8.07405122 15.1439809,8.1703178 15.2645167,8.20240666 C15.3850525,8.23449553 15.5055883,8.23449553 15.6261241,8.1703178 C15.7466599,8.10614008 15.8370617,8.0098735 15.8671957,7.88151805 C15.9877315,7.52854057 15.9877315,7.1755631 15.9274636,6.82258562 C15.8671957,6.46960815 15.716526,6.11663067 15.4754544,5.85991978 C15.2343828,5.60320889 14.9631773,5.37858686 14.6317038,5.28232027 Z M16.1082673,11.4433817 C16.1082673,11.0904042 16.0781333,10.7695156 15.8973296,10.448627 C15.716526,10.1277384 15.5055883,9.87102746 15.2343828,9.71058315 C14.9631773,9.55013885 14.6919717,9.38969454 14.3604983,9.29342795 C14.3002304,9.26133909 14.2399625,9.22925023 14.2098286,9.22925023 C14.1796946,9.22925023 14.1495607,9.19716137 14.1194267,9.16507251 C14.0892928,9.13298365 14.0892928,9.10089479 14.0892928,9.06880592 C14.0892928,9.0046282 14.1194267,8.94045048 14.1194267,8.87627276 C14.3604983,8.1703178 14.3604983,7.65689602 14.1194267,7.27182968 C13.8482212,6.91885221 13.4263459,6.72631904 12.823667,6.72631904 C12.220988,6.72631904 11.5279072,6.88676334 10.7444246,7.23974082 L10.6841567,7.27182968 C10.6540227,7.27182968 10.5937548,7.30391854 10.5636209,7.30391854 C10.5334869,7.30391854 10.473219,7.30391854 10.4430851,7.30391854 C10.3828172,7.30391854 10.3828172,7.27182968 10.3526833,7.23974082 C10.3225493,7.1755631 10.3225493,7.14347424 10.3526833,7.04720765 C10.5937548,6.18080839 10.5334869,5.57112002 10.1718796,5.18605369 C9.7500043,4.73680963 9.0569235,4.73680963 8.09263717,5.12187596 C7.12835084,5.53903116 6.16406451,6.24498612 5.22991213,7.23974082 C4.50669739,8.0098735 3.96428633,8.78000617 3.57254501,9.55013885 C3.18080369,10.3202715 3,11.0583153 3,11.7321814 C3,12.3739587 3.18080369,12.983647 3.54241106,13.5291577 C3.90401843,14.0746683 4.3861616,14.5239124 4.98884055,14.8768898 C5.59151951,15.2298673 6.25446636,15.5186671 7.00781505,15.7112002 C7.76116374,15.9037334 8.54464639,16 9.32812903,16 C10.1116117,16 10.8649604,15.9037334 11.5881751,15.7112002 C12.3113899,15.5186671 12.9442028,15.294045 13.4866138,14.9731564 C14.0290249,14.6522678 14.511168,14.2992903 14.9029094,13.914224 C15.2946507,13.5291577 15.5959902,13.1120025 15.8069278,12.6948473 C16.0178654,12.2776921 16.1082673,11.8605369 16.1082673,11.4433817 Z M13.5167478,11.4112928 C13.4564799,10.8336933 13.2154083,10.3202715 12.7633991,9.90311632 C12.3113899,9.45387226 11.7388448,9.13298365 11.0156301,8.94045048 C10.2924154,8.71582845 9.53906666,8.68373959 8.69531612,8.74791731 C7.45982427,8.87627276 6.4051361,9.29342795 5.59151951,9.99938291 C4.77790292,10.7053379 4.3861616,11.5075594 4.47656344,12.3739587 C4.53683134,12.9515582 4.77790292,13.4649799 5.22991213,13.8821351 C5.68192135,14.3313792 6.25446636,14.6522678 6.9776811,14.844801 C7.70089585,15.069423 8.45424454,15.1015119 9.29799508,15.0373342 C10.5334869,14.9089787 11.5881751,14.4918235 12.4017917,13.7858686 C13.2154083,13.0799136 13.5770157,12.2776921 13.5167478,11.4112928 Z M10.8950943,12.8552916 C10.6540227,13.4649799 10.2020135,13.914224 9.56920061,14.2030238 C8.93638771,14.4918235 8.3035748,14.5239124 7.70089585,14.2992903 C7.09821689,14.1067572 6.67634163,13.7216908 6.46540399,13.1761802 C6.22433241,12.6306695 6.25446636,12.05307 6.52567189,11.5075594 C6.79687742,10.9620488 7.21875269,10.5448936 7.79129769,10.2560938 C8.3638427,9.96729405 8.96652165,9.93520518 9.56920061,10.0956495 C10.2020135,10.2560938 10.6238888,10.6411601 10.8950943,11.1545819 C11.1361659,11.7000926 11.1361659,12.2456032 10.8950943,12.8552916 Z M8.63504823,12.983647 C8.75558402,12.7911139 8.78571797,12.5664918 8.72545007,12.3739587 C8.66518218,12.1493366 8.54464639,12.0209812 8.33370875,11.9247146 C8.15290507,11.828448 7.94196743,11.828448 7.7310298,11.9247146 C7.52009216,12.0209812 7.33928848,12.1493366 7.21875269,12.3418698 C7.09821689,12.534403 7.06808295,12.759025 7.09821689,12.9515582 C7.15848479,13.1440913 7.27902058,13.3045356 7.45982427,13.4008022 C7.64062795,13.4970688 7.85156559,13.4970688 8.09263717,13.4328911 C8.33370875,13.3366245 8.51451244,13.1761802 8.63504823,12.983647 Z M9.41853087,11.8926257 C9.44866482,11.828448 9.47879877,11.7321814 9.44866482,11.6680037 C9.41853087,11.5717371 9.38839692,11.5396483 9.29799508,11.5075594 C9.20759324,11.4754705 9.14732534,11.4754705 9.0569235,11.5075594 C8.96652165,11.5396483 8.90625376,11.603826 8.87611981,11.6680037 C8.78571797,11.8605369 8.81585192,11.9888923 8.9966556,12.0851589 C9.08705745,12.1172478 9.14732534,12.1172478 9.23772718,12.0851589 C9.32812903,12.0209812 9.38839692,11.9568035 9.41853087,11.8926257 Z"></path>
        </g>
    </g>
</svg>